<svg xmlns="http://www.w3.org/2000/svg" width="1024" height="1024" viewBox="0 0 1024 1024"><defs><linearGradient id="bg" x2="0" y2="1"><stop stop-color="#FFB347"/><stop offset="1" stop-color="#FF6A3D"/></linearGradient><linearGradient id="cream" x2="0" y2="1"><stop stop-color="#FFF4E2"/><stop offset="1" stop-color="#F2E2C6"/></linearGradient><linearGradient id="gold" x2="0" y2="1"><stop stop-color="#FFE08A"/><stop offset=".55" stop-color="#FFC93C"/></linearGradient><filter id="shadow" x="-40%" y="-30%" width="180%" height="170%"><feDropShadow dx="0" dy="16" stdDeviation="13" flood-color="#A43B21" flood-opacity=".20"/></filter><clipPath id="clip"><rect x="48" y="48" width="928" height="928" rx="208"/></clipPath></defs><rect x="48" y="48" width="928" height="928" rx="208" fill="url(#bg)"/><g clip-path="url(#clip)"><g filter="url(#shadow)"><path d="M356 184H639L744 289V759Q744 840 663 840H354Q280 840 280 766V497H326V414H298V242Q298 184 356 184Z" fill="url(#cream)"/><polygon points="515.000,304.000 557.268,398.824 660.512,409.720 583.390,479.221 604.931,580.780 515.000,528.910 425.069,580.780 446.610,479.221 369.488,409.720 472.732,398.824" fill="url(#gold)" stroke="url(#gold)" stroke-width="14" stroke-linejoin="round"/><g fill="#FFC93C"><rect x="363" y="675" width="64" height="112" rx="15"/><rect x="480" y="675" width="64" height="112" rx="15"/><rect x="597" y="675" width="64" height="112" rx="15"/></g></g></g></svg>