<svg xmlns="http://www.w3.org/2000/svg" width="1024" height="1024" viewBox="0 0 1024 1024"><defs><linearGradient id="bg" x2="0" y2="1"><stop stop-color="#FFB347"/><stop offset="1" stop-color="#FF6A3D"/></linearGradient><linearGradient id="cream" x2="0" y2="1"><stop stop-color="#FFF4E2"/><stop offset="1" stop-color="#F2E2C6"/></linearGradient><linearGradient id="gold" x2="0" y2="1"><stop stop-color="#FFE08A"/><stop offset=".55" stop-color="#FFC93C"/></linearGradient><filter id="shadow" x="-40%" y="-30%" width="180%" height="170%"><feDropShadow dx="0" dy="16" stdDeviation="13" flood-color="#A43B21" flood-opacity=".20"/></filter><clipPath id="clip"><rect x="48" y="48" width="928" height="928" rx="208"/></clipPath></defs><rect x="48" y="48" width="928" height="928" rx="208" fill="url(#bg)"/><g clip-path="url(#clip)"><g filter="url(#shadow)"><g fill="#FFE08A"><rect x="378" y="160" width="44" height="89" rx="22"/><rect x="602" y="160" width="44" height="89" rx="22"/></g><rect x="298" y="441" width="428" height="415" rx="78" fill="url(#cream)"/><rect x="341" y="489" width="342" height="226" rx="38" fill="#1F2340"/><circle cx="512" cy="782" r="45" fill="#F2E2C6"/><polygon points="512.000,223.000 552.058,312.865 649.903,323.193 576.815,389.060 597.229,485.307 512.000,436.150 426.771,485.307 447.185,389.060 374.097,323.193 471.942,312.865" fill="url(#gold)" stroke="url(#gold)" stroke-width="14" stroke-linejoin="round"/></g></g></svg>