<svg xmlns="http://www.w3.org/2000/svg" width="1024" height="1024" viewBox="0 0 1024 1024"><defs><linearGradient id="bg" x2="0" y2="1"><stop stop-color="#FFB347"/><stop offset="1" stop-color="#FF6A3D"/></linearGradient><linearGradient id="cream" x2="0" y2="1"><stop stop-color="#FFF4E2"/><stop offset="1" stop-color="#F2E2C6"/></linearGradient><linearGradient id="gold" x2="0" y2="1"><stop stop-color="#FFE08A"/><stop offset=".55" stop-color="#FFC93C"/></linearGradient><filter id="shadow" x="-40%" y="-30%" width="180%" height="170%"><feDropShadow dx="0" dy="16" stdDeviation="13" flood-color="#A43B21" flood-opacity=".20"/></filter><clipPath id="clip"><rect x="48" y="48" width="928" height="928" rx="208"/></clipPath></defs><rect x="48" y="48" width="928" height="928" rx="208" fill="url(#bg)"/><g clip-path="url(#clip)"><g filter="url(#shadow)"><g transform="rotate(8 512 512)"><rect x="282" y="184" width="460" height="656" rx="82" fill="#FFF4E2"/><rect x="328" y="236" width="368" height="394" rx="43" fill="#1F2340"/><circle cx="512" cy="733" r="66" fill="#F2E2C6"/></g><g transform="rotate(8 512 512)"><polygon points="512.000,293.000 551.505,381.626 648.001,391.811 575.921,456.769 596.053,551.689 512.000,503.210 427.947,551.689 448.079,456.769 375.999,391.811 472.495,381.626" fill="url(#gold)" stroke="url(#gold)" stroke-width="14" stroke-linejoin="round"/></g></g></g></svg>